<?xml version="1.0" encoding="utf-8" ?><svg xmlns="http://www.w3.org/2000/svg" xmlns:xlink="http://www.w3.org/1999/xlink" width="1024" height="1024" viewBox="0 0 1024 1024"><path fill="white" d="M0 0L1024 0L1024 1024L0 1024L0 0Z"/><path fill="#63FDD3" d="M629.718 317.734C644.636 317.532 659.414 320.643 672.985 326.843C698.21 338.144 718.512 360.773 727.88 386.426C747.171 439.25 720.139 501.636 666.841 521.177C646.408 528.669 621.228 530.162 601.456 520.426C570.302 505.087 545.975 478.697 529.966 448.205C523.711 436.34 518.221 426.532 513.582 413.898C511.321 408.181 508.676 401.945 506.936 396.095C508.475 397.607 510.341 400.266 511.868 402.076L523.901 416.124C534.275 428.138 545.926 438.987 558.648 448.479C576.785 462.049 612.39 481.929 635.489 478.908C650.648 477.032 664.671 464.281 673.554 452.717C689.21 432.336 683.364 391.945 661.985 377.295C646.18 366.466 625.843 363.55 607.474 369.741C601.235 371.626 582.28 383.647 577.047 376.996C560.509 355.978 557.196 346.4 581.981 331.833C600.287 321.074 609.494 318.235 629.718 317.734Z"/><path fill="#1E2761" d="M495.963 320.623C503.51 320.684 507.119 323.545 510.573 329.83C526.094 358.071 541.801 386.257 557.026 414.651C558.244 416.923 558.883 421.285 555.439 422.039C551.345 422.936 546.965 418.039 543.62 416.299C529.902 407.737 516.385 398.698 503.145 389.403C492.008 408.688 478.372 429.03 466.563 448.176L440.971 489.23C434.894 499.052 425.321 516.531 416.825 524.95C413.417 528.326 401.902 526.727 398.815 521.729C392.933 512.206 387.38 501.809 381.73 491.841C370.247 471.193 358.342 450.782 346.021 430.623C333.576 408.721 319.502 385.591 306.431 364.03L295.246 345.7C293.235 342.425 290.589 338.553 289.055 335.136C286.025 329.314 292.537 319.587 299.046 322.682C307.582 326.741 317.081 334.068 324.9 339.439L347.674 355.318C365.415 367.761 361.692 366.268 371.279 385.472L393.917 431.146C398 439.425 402.507 449.19 406.949 457.17C412.236 450.359 423.476 430.149 428.233 422.123L463.875 362.679C470.659 351.257 477.395 339.593 484.27 328.222C487.233 323.321 490.506 321.742 495.963 320.623Z"/><path fill="#1E2761" d="M206.792 600.407L229.897 600.507C227.931 607.963 226.152 615.856 224.338 623.379C222.255 632.019 219.598 640.588 217.311 649.198L203.044 704.539C194.898 704.61 186.751 704.625 178.605 704.584C172.869 682.715 167.662 659.785 161.513 638.227C160.498 641.189 159.628 644.726 158.848 647.789C154.037 666.673 148.486 685.59 144.238 704.598L119.242 704.519C115.956 693.676 112.438 676.741 109.733 665.397C104.391 643.814 99.266 622.179 94.3591 600.494L117.754 600.476C119.141 609.244 121.471 618.025 123.244 626.717C126.392 642.15 130.044 657.703 132.976 673.159C134.795 668.091 136.18 659.554 137.625 653.942C142.183 636.238 145.587 618.028 150.746 600.508C157.944 600.679 165.718 600.522 172.96 600.509C173.652 604.181 174.756 608.162 175.776 611.764C181.374 631.543 185.844 651.784 191.507 671.515C192.743 664.357 194.838 655.806 196.411 648.572L206.792 600.407Z"/><path fill="#00BFA5" d="M541.338 600.239C549.369 600.069 557.002 600.469 564.757 603.001C594.983 612.861 599.05 651.02 590.423 677.131C586.685 688.443 577.218 697.131 566.653 702.063C553.79 706.84 530.319 705.356 515.443 705.401C514.365 672.427 515.371 633.717 515.479 600.399C524.099 600.446 532.719 600.393 541.338 600.239Z"/><path fill="white" d="M519.539 604.648C537.454 605.369 561.492 600.944 575.657 614.398C594.705 632.492 594.193 670.618 576.813 689.521C565.071 701.123 554.672 701.108 539.128 701.035C532.543 701.005 525.957 701.01 519.372 701.052C519.138 698.018 519.081 694.407 519.127 691.344C519.552 662.504 518.787 633.462 519.539 604.648Z"/><path fill="#1E2761" d="M252.171 626.152C253.86 625.998 255.552 625.886 257.246 625.817C267.439 625.496 277.744 627.672 285.266 634.989C295.059 644.514 293.032 659.754 293.014 672.321C292.942 683.217 292.985 694.114 293.143 705.009C286.157 704.939 279.17 705.015 272.187 705.237C271.486 701.546 271.497 699.375 271.42 695.587C260.95 709.94 238.169 711.645 227.115 697.246C224.515 693.294 223.011 688.722 222.757 683.999C221.051 650.93 262.258 661.622 269.407 653.778C273.198 642.533 249.752 637.193 246.367 653.88L246.245 654.508L224.37 654.031C227.256 637.062 235.158 628.827 252.171 626.152Z"/><path fill="white" d="M269.24 671.253C269.529 671.217 270.214 671.156 270.268 671.579C272.264 687.148 260.32 691.446 248.158 687.616C241.055 682.216 244.301 674.782 252.253 673.373C255.047 672.879 257.92 672.299 260.751 672.039L269.24 671.253Z"/><path fill="#1E2761" d="M464.669 625.678C495.367 625.099 501.447 646.543 502.353 672.496C485.245 672.534 466.302 671.874 449.452 672.503C449.702 673.886 449.989 675.457 450.316 676.813C451.319 680.864 453.907 684.342 457.499 686.466C467.009 692.083 476.538 687.632 481.491 678.51L501.759 678.626C498.992 695.065 488.386 703.671 472.286 705.893C443.414 709.876 425.977 691.305 428.563 662.752C430.461 641.808 443.633 627.901 464.669 625.678Z"/><path fill="white" d="M461.806 644.063C473.546 643.175 478.123 646.479 481.261 657.532L469.219 657.516C462.557 657.539 455.896 657.513 449.234 657.439C451.678 649.535 453.359 646.363 461.806 644.063Z"/><path fill="#1E2761" d="M331.081 625.695C340.717 625.015 352.835 626.928 360.244 633.554C366.823 639.439 367.848 645.433 368.354 653.569C361.478 653.484 354.601 653.481 347.726 653.562C342.477 631.983 310.387 649.261 331.841 655.109C342.142 658.003 354.52 658.019 363.177 665.093C371.924 672.24 371.389 689.038 364.06 697.044C356.63 705.16 347.555 706.372 337.323 706.935C317.76 706.449 303.342 699.462 301.33 678.117C308.863 678.367 315.703 678.242 323.25 678.068C325.403 689.202 336.637 692.552 346.032 686.314C348.653 684.111 349.344 679.895 345.867 678.236C332.593 671.903 303.649 674.116 302.246 654.071C300.945 635.488 314.709 627.114 331.081 625.695Z"/><path fill="#1E2761" d="M385.491 606.008L407.849 605.996C407.853 613.136 407.811 620.276 407.724 627.416L422.017 627.497C422.003 633.153 422.046 638.748 421.714 644.397L408.439 644.43C408.353 654.173 408.262 663.922 408.21 673.666C408.187 677.94 407.928 682.184 410.544 685.798C413.452 687.642 420.749 686.977 424.489 686.917L424.509 702.125C424.573 703.61 424.673 703.08 424.198 704.469C420.948 705.929 412.853 705.036 409.073 705.067C402.774 705.065 395.79 705.651 390.878 700.81C384.154 694.182 385.566 681.971 385.508 673.213L385.272 644.303L374.981 644.45L375.012 627.552L385.519 627.518L385.491 606.008Z"/><path fill="#00BFA5" d="M637.315 628.623C663.246 625.208 672.826 646.29 673.723 668.255C653.381 668.492 632.893 668.028 612.448 668.299C615.093 688.063 621.073 703.552 645.347 701.432C651.054 700.934 654.888 698.689 659.345 695.391C665.707 689.361 665.084 686.114 669.125 680.977C670.996 680.109 670.593 679.933 672.221 680.264L672.57 680.853C672.66 684.21 670.4 688.568 668.682 691.372C655.708 712.548 621.789 711.715 612.387 687.673C602.946 663.533 608.867 633.626 637.315 628.623Z"/><path fill="white" d="M639.343 633.166C651.661 632.051 661.824 638.812 666.317 650.19C668.192 654.939 668.542 659.048 669.126 664.083L642.875 663.97C633.171 663.956 622.251 664.184 612.642 663.758C615.511 647.095 620.38 635.834 639.343 633.166Z"/><path fill="#00BFA5" d="M762.074 628.64C780.984 626.008 794.051 638.759 797.886 656.411C798.768 660.466 798.845 664.091 798.976 668.23C779.383 668.765 758.025 667.98 738.109 668.178C738.965 685.884 747.045 703.078 767.745 701.742C774.154 701.328 778.242 699.461 783.497 696.032C790.338 690.657 789.391 688.259 793.806 681.566C794.482 680.543 795.497 680.274 796.629 680.239L797.135 681.02C797.517 685.258 796.449 687.024 794.331 690.682C784.563 706.778 763.382 711.059 747.786 700.838C737.566 693.814 734.313 680.312 733.773 668.759C732.848 648.942 741.407 632.311 762.074 628.64Z"/><path fill="white" d="M764.514 633.162C784.362 631.886 792.17 647.033 794.133 663.965L767.888 663.958L738.25 663.806C739.604 647.349 747.222 635.713 764.514 633.162Z"/><path fill="#00BFA5" d="M845.061 628.192C848.855 627.928 853.682 628.715 857.262 629.975C864.484 632.451 870.404 637.732 873.686 644.626C875.006 647.463 878.892 654.344 874.908 656.178C870.448 654.122 870.803 643.191 863.199 638.754C810.393 607.938 796.003 710.771 853.635 701.088C860.857 698.683 867.425 694.361 870.241 686.826C871.487 683.495 871.502 681.264 873.383 678.048C874.879 677.415 875.018 677.557 876.608 677.726L877.283 678.977C877.417 683.311 873.53 690.785 870.955 694.055C851.861 718.057 813.968 705.546 812.226 674.313C810.912 650.765 818.981 630.799 845.061 628.192Z"/><path fill="#00BFA5" d="M902.421 605.866L904.786 606.433C906.236 607.921 905.611 627.656 905.592 631.216C910.181 631.204 922.456 630.544 926.278 631.426C926.754 632.979 926.574 633.358 926.384 634.971C924.73 636.202 909.101 635.604 905.873 635.568C905.863 645.643 904.532 687.903 906.979 694.755C910.885 705.695 923.98 699.23 929.129 702.145C929.794 702.522 929.932 703.983 930.126 704.708C928.572 706.447 927.772 705.882 925.695 706.039C898.385 708.103 901.515 691.425 901.498 671.172L901.502 635.502C897.133 635.411 888.703 636.354 884.602 634.86C883.446 634.439 883.514 633.283 883.407 632.3L884.009 631.588C887.335 630.985 897.381 631.331 901.502 631.345C901.456 625.267 901.164 613.336 901.533 606.796C901.829 606.486 902.125 606.176 902.421 605.866Z"/><path fill="#00BFA5" d="M697.645 606.356C699.137 606.43 699.519 606.5 700.989 606.809C702.229 608.85 701.658 627.543 701.641 631.34C705.434 631.285 720.668 630.561 722.914 632.032C723.124 633.996 723.441 633.427 722.719 634.725C719.395 636.205 706.192 635.525 701.739 635.453L701.595 671.225C701.569 677.557 701.268 683.8 702.012 690.101C703.646 703.945 715.624 701.895 726.055 701.735C725.966 704.112 726.357 704.012 725.214 705.602C724.24 706.03 723.938 706.187 722.853 706.238C694.394 707.587 697.642 692.523 697.646 670L697.572 635.566C693.4 635.476 682.475 636.888 679.854 633.94C679.643 632.136 679.36 632.799 680.192 631.666C684.443 631.043 692.985 631.338 697.628 631.386L697.645 606.356Z"/></svg>